{"asset":{"version":"2.0","generator":"VECTARY"},"nodes":[{"translation":[0,0.15099999999999988,0.8784711509409058],"scale":[0.001,0.001,0.001],"rotation":[-0.7071067811865475,0,0,0.7071067811865476],"name":"Spot Light","extensions":{"KHR_lights_punctual":{"light":0}}},{"translation":[-0.22841856730595736,0.091045015587237,0.03871152035850458],"scale":[0.00257,0.0002,0.001],"rotation":[-0.9219446036712549,0,0,0.38732176257144774],"name":"right","mesh":0},{"translation":[0.0025910366478623815,0.12459718650933514,0.007227368370332613],"scale":[0.001,0.001,0.001],"rotation":[-0.9219446036712549,0,0,0.3873217625714478],"name":"connect-lie","mesh":1},{"translation":[0.2349883973782391,0.09533008609388323,0.034511738131642024],"scale":[0.00257,0.0002,0.001],"rotation":[-0.9219446036712549,0,0,0.38732176257144774],"name":"left","mesh":2},{"translation":[0,0.154,2.842170943040401e-17],"scale":[0.001,0.001,0.00016],"rotation":[-0.7071067811865475,0,0,0.7071067811865476],"name":"Cylinder","mesh":3},{"translation":[0,0.21799999999999997,2.842170943040401e-17],"scale":[0.0011406467356045744,0.0011406467356045744,0.0011406467356045744],"rotation":[0.13492233454214747,0.6941152380128943,-0.6941152380128942,0.13492233454214755],"name":"Cone","mesh":4},{"translation":[0,-0.012000000000000004,-2.6645352591003758e-18],"scale":[0.0006,0.0005,0.00162],"rotation":[-0.70183611446619,-0.08617463914053183,-0.08617463914053185,0.7018361144661901],"name":"inner","mesh":5},{"translation":[0,0,0],"scale":[0.001,0.0010000000000000002,0.0006],"rotation":[-0.7071067811865475,0,0,0.7071067811865476],"name":"bottom","mesh":6},{"translation":[0,0.07299999999999997,1.4210854715202004e-17],"scale":[0.000989274,0.00109,0.000989274],"rotation":[-0.7071067811865475,0,0,0.7071067811865476],"name":"center","mesh":7}],"extensions":{"KHR_lights_punctual":{"lights":[{"name":"Spot Light","type":"spot","intensity":0.4,"range":10000,"color":[1,1,1],"spot":{"innerConeAngle":0.667588438887831,"outerConeAngle":0.7853981633974483}}]}},"materials":[{"pbrMetallicRoughness":{"baseColorFactor":[0.014310519374884064,0.05818717747368543,0.7969165429079781,1],"metallicFactor":0,"roughnessFactor":0.2},"name":"Fiesta 1","emissiveFactor":[0,0,0],"extensions":{},"alphaMode":"OPAQUE","doubleSided":false},{"pbrMetallicRoughness":{"baseColorFactor":[0,0.5417983559501369,1,1],"metallicFactor":0,"roughnessFactor":0.2},"name":"Royal Vibe","emissiveFactor":[0,0,0],"extensions":{},"alphaMode":"OPAQUE","doubleSided":false},{"pbrMetallicRoughness":{"baseColorFactor":[0.014310519374884064,0.05818717747368543,0.7969165429079781,1],"metallicFactor":0,"roughnessFactor":0.2},"name":"Fiesta 1","emissiveFactor":[0,0,0],"extensions":{},"alphaMode":"OPAQUE","doubleSided":false},{"pbrMetallicRoughness":{"baseColorFactor":[1,1,1,1],"metallicFactor":0,"roughnessFactor":0.2},"name":"Bazaar","emissiveFactor":[0,0,0],"extensions":{},"alphaMode":"OPAQUE","doubleSided":false},{"pbrMetallicRoughness":{"baseColorFactor":[1,1,1,1],"metallicFactor":0,"roughnessFactor":0.2},"name":"Tulip","emissiveFactor":[0,0,0],"extensions":{},"alphaMode":"OPAQUE","doubleSided":false},{"pbrMetallicRoughness":{"baseColorFactor":[0.11657577617857154,0.48776520187781053,0.9743002023888613,1],"metallicFactor":0,"roughnessFactor":0.2},"name":"Flora","emissiveFactor":[0,0,0],"extensions":{},"alphaMode":"OPAQUE","doubleSided":false},{"pbrMetallicRoughness":{"baseColorFactor":[1,1,1,1],"metallicFactor":0,"roughnessFactor":0.2},"name":"Ballon","emissiveFactor":[0,0,0],"extensions":{},"alphaMode":"OPAQUE","doubleSided":false},{"pbrMetallicRoughness":{"baseColorFactor":[1,1,1,1],"metallicFactor":0,"roughnessFactor":0.2},"name":"Galaxy","emissiveFactor":[0,0,0],"extensions":{},"alphaMode":"OPAQUE","doubleSided":false}],"meshes":[{"primitives":[{"mode":4,"attributes":{"POSITION":1,"NORMAL":2,"TEXCOORD_0":3},"material":0,"indices":0}]},{"primitives":[{"mode":4,"attributes":{"POSITION":5,"NORMAL":6,"TEXCOORD_0":7},"material":1,"indices":4}]},{"primitives":[{"mode":4,"attributes":{"POSITION":9,"NORMAL":10,"TEXCOORD_0":11},"material":2,"indices":8}]},{"primitives":[{"mode":4,"attributes":{"POSITION":13,"NORMAL":14,"TEXCOORD_0":15},"material":3,"indices":12}]},{"primitives":[{"mode":4,"attributes":{"POSITION":17,"NORMAL":18,"TEXCOORD_0":19},"material":4,"indices":16}]},{"primitives":[{"mode":4,"attributes":{"POSITION":21,"NORMAL":22,"TEXCOORD_0":23},"material":5,"indices":20}]},{"primitives":[{"mode":4,"attributes":{"POSITION":25,"NORMAL":26,"TEXCOORD_0":27},"material":6,"indices":24}]},{"primitives":[{"mode":4,"attributes":{"POSITION":29,"NORMAL":30,"TEXCOORD_0":31},"material":7,"indices":28}]}],"accessors":[{"bufferView":0,"byteOffset":0,"componentType":5125,"count":2916,"type":"SCALAR"},{"bufferView":1,"byteOffset":0,"componentType":5126,"count":492,"max":[50,10,100],"min":[-50,-10,0],"type":"VEC3"},{"bufferView":2,"byteOffset":0,"componentType":5126,"count":492,"type":"VEC3"},{"bufferView":3,"byteOffset":0,"componentType":5126,"count":492,"type":"VEC2"},{"bufferView":4,"byteOffset":0,"componentType":5125,"count":2700,"type":"SCALAR"},{"bufferView":5,"byteOffset":0,"componentType":5126,"count":479,"max":[103.00000762939453,4,10],"min":[-103.00000762939453,-4,0],"type":"VEC3"},{"bufferView":6,"byteOffset":0,"componentType":5126,"count":479,"type":"VEC3"},{"bufferView":7,"byteOffset":0,"componentType":5126,"count":479,"type":"VEC2"},{"bufferView":8,"byteOffset":0,"componentType":5125,"count":2916,"type":"SCALAR"},{"bufferView":9,"byteOffset":0,"componentType":5126,"count":560,"max":[50.00000762939453,10,100],"min":[-50.000003814697266,-10,0],"type":"VEC3"},{"bufferView":10,"byteOffset":0,"componentType":5126,"count":560,"type":"VEC3"},{"bufferView":11,"byteOffset":0,"componentType":5126,"count":560,"type":"VEC2"},{"bufferView":12,"byteOffset":0,"componentType":5125,"count":6912,"type":"SCALAR"},{"bufferView":13,"byteOffset":0,"componentType":5126,"count":1302,"max":[50,50,100],"min":[-50,-50,0],"type":"VEC3"},{"bufferView":14,"byteOffset":0,"componentType":5126,"count":1302,"type":"VEC3"},{"bufferView":15,"byteOffset":0,"componentType":5126,"count":1302,"type":"VEC2"},{"bufferView":16,"byteOffset":0,"componentType":5125,"count":4992,"type":"SCALAR"},{"bufferView":17,"byteOffset":0,"componentType":5126,"count":897,"max":[44.144203186035156,44.144203186035156,47.1161994934082],"min":[-44.144203186035156,-44.144203186035156,0],"type":"VEC3"},{"bufferView":18,"byteOffset":0,"componentType":5126,"count":897,"type":"VEC3"},{"bufferView":19,"byteOffset":0,"componentType":5126,"count":897,"type":"VEC2"},{"bufferView":20,"byteOffset":0,"componentType":5125,"count":2160,"type":"SCALAR"},{"bufferView":21,"byteOffset":0,"componentType":5126,"count":422,"max":[50,50,100],"min":[-50,-50,0],"type":"VEC3"},{"bufferView":22,"byteOffset":0,"componentType":5126,"count":422,"type":"VEC3"},{"bufferView":23,"byteOffset":0,"componentType":5126,"count":422,"type":"VEC2"},{"bufferView":24,"byteOffset":0,"componentType":5125,"count":6912,"type":"SCALAR"},{"bufferView":25,"byteOffset":0,"componentType":5126,"count":1302,"max":[50,50,100],"min":[-50,-50,0],"type":"VEC3"},{"bufferView":26,"byteOffset":0,"componentType":5126,"count":1302,"type":"VEC3"},{"bufferView":27,"byteOffset":0,"componentType":5126,"count":1302,"type":"VEC2"},{"bufferView":28,"byteOffset":0,"componentType":5125,"count":6912,"type":"SCALAR"},{"bufferView":29,"byteOffset":0,"componentType":5126,"count":1302,"max":[50,50,69.4000015258789],"min":[-50,-50,0],"type":"VEC3"},{"bufferView":30,"byteOffset":0,"componentType":5126,"count":1302,"type":"VEC3"},{"bufferView":31,"byteOffset":0,"componentType":5126,"count":1302,"type":"VEC2"}],"bufferViews":[{"buffer":0,"byteOffset":0,"byteLength":11664,"target":34963},{"buffer":0,"byteOffset":11664,"byteLength":5904,"target":34962},{"buffer":0,"byteOffset":17568,"byteLength":5904,"target":34962},{"buffer":0,"byteOffset":23472,"byteLength":3936,"target":34962},{"buffer":0,"byteOffset":27408,"byteLength":10800,"target":34963},{"buffer":0,"byteOffset":38208,"byteLength":5748,"target":34962},{"buffer":0,"byteOffset":43956,"byteLength":5748,"target":34962},{"buffer":0,"byteOffset":49704,"byteLength":3832,"target":34962},{"buffer":0,"byteOffset":53536,"byteLength":11664,"target":34963},{"buffer":0,"byteOffset":65200,"byteLength":6720,"target":34962},{"buffer":0,"byteOffset":71920,"byteLength":6720,"target":34962},{"buffer":0,"byteOffset":78640,"byteLength":4480,"target":34962},{"buffer":0,"byteOffset":83120,"byteLength":27648,"target":34963},{"buffer":0,"byteOffset":110768,"byteLength":15624,"target":34962},{"buffer":0,"byteOffset":126392,"byteLength":15624,"target":34962},{"buffer":0,"byteOffset":142016,"byteLength":10416,"target":34962},{"buffer":0,"byteOffset":152432,"byteLength":19968,"target":34963},{"buffer":0,"byteOffset":172400,"byteLength":10764,"target":34962},{"buffer":0,"byteOffset":183164,"byteLength":10764,"target":34962},{"buffer":0,"byteOffset":193928,"byteLength":7176,"target":34962},{"buffer":0,"byteOffset":201104,"byteLength":8640,"target":34963},{"buffer":0,"byteOffset":209744,"byteLength":5064,"target":34962},{"buffer":0,"byteOffset":214808,"byteLength":5064,"target":34962},{"buffer":0,"byteOffset":219872,"byteLength":3376,"target":34962},{"buffer":0,"byteOffset":223248,"byteLength":27648,"target":34963},{"buffer":0,"byteOffset":250896,"byteLength":15624,"target":34962},{"buffer":0,"byteOffset":266520,"byteLength":15624,"target":34962},{"buffer":0,"byteOffset":282144,"byteLength":10416,"target":34962},{"buffer":0,"byteOffset":292560,"byteLength":27648,"target":34963},{"buffer":0,"byteOffset":320208,"byteLength":15624,"target":34962},{"buffer":0,"byteOffset":335832,"byteLength":15624,"target":34962},{"buffer":0,"byteOffset":351456,"byteLength":10416,"target":34962}],"scene":0,"scenes":[{"nodes":[0,1,2,3,4,5,6,7,8],"name":"卫星"}],"extensionsUsed":["KHR_texture_transform","KHR_lights_punctual"],"extensionsRequired":["KHR_lights_punctual"],"buffers":[{"byteLength":361872,"uri":"卫星.bin"}]}